<?xml version="1.0" encoding="UTF-8" standalone="no"?>
<svg
   height="472.64001"
   width="483.31732"
   version="1.1"
   viewBox="0 0 453.10999 443.10001"
   id="svg5277"
   sodipodi:docname="earth2.svg"
   inkscape:version="1.2.1 (9c6d41e410, 2022-07-14)"
   xmlns:inkscape="http://www.inkscape.org/namespaces/inkscape"
   xmlns:sodipodi="http://sodipodi.sourceforge.net/DTD/sodipodi-0.dtd"
   xmlns:xlink="http://www.w3.org/1999/xlink"
   xmlns="http://www.w3.org/2000/svg"
   xmlns:svg="http://www.w3.org/2000/svg"
   xmlns:rdf="http://www.w3.org/1999/02/22-rdf-syntax-ns#"
   xmlns:cc="http://creativecommons.org/ns#"
   xmlns:dc="http://purl.org/dc/elements/1.1/">
  <sodipodi:namedview
     id="namedview31"
     pagecolor="#ffffff"
     bordercolor="#666666"
     borderopacity="1.0"
     inkscape:showpageshadow="2"
     inkscape:pageopacity="0.0"
     inkscape:pagecheckerboard="0"
     inkscape:deskcolor="#d1d1d1"
     showgrid="false"
     inkscape:zoom="2.1729011"
     inkscape:cx="235.16947"
     inkscape:cy="236.32001"
     inkscape:window-width="2560"
     inkscape:window-height="1361"
     inkscape:window-x="2551"
     inkscape:window-y="-9"
     inkscape:window-maximized="1"
     inkscape:current-layer="svg5277" />
  <title
     id="title10465">Globe</title>
  <defs
     id="defs5279">
    <linearGradient
       id="linearGradient4673">
      <stop
         id="stop4669"
         offset="0"
         style="stop-color:#0000ff;stop-opacity:1;" />
      <stop
         id="stop4671"
         offset="1"
         style="stop-color:#0000ff;stop-opacity:0;" />
    </linearGradient>
    <linearGradient
       id="linearGradient4657">
      <stop
         id="stop4653"
         offset="0"
         style="stop-color:#ff6719;stop-opacity:1;" />
      <stop
         id="stop4655"
         offset="1"
         style="stop-color:#ff6719;stop-opacity:0;" />
    </linearGradient>
    <linearGradient
       id="linearGradient10345">
      <stop
         offset="0"
         style="stop-color:#0489ac;stop-opacity:.53846"
         id="stop10347" />
      <stop
         offset="1"
         style="stop-color:#0034ff"
         id="stop10349" />
    </linearGradient>
    <linearGradient
       gradientTransform="matrix(0.95175381,0,0,1.0194051,-16.744667,76.81645)"
       x1="27.959"
       y1="145.36"
       x2="480.04001"
       gradientUnits="userSpaceOnUse"
       xlink:href="#linearGradient10345"
       y2="145.36"
       id="linearGradient10463" />
    <linearGradient
       gradientTransform="matrix(5.7328721,-8.118698e-8,0,0.01835111,3150.2136,497.6053)"
       gradientUnits="userSpaceOnUse"
       y2="-142.24725"
       x2="-589.46904"
       y1="-142.24725"
       x1="-609.375"
       id="linearGradient4659"
       xlink:href="#linearGradient4657" />
    <radialGradient
       gradientUnits="userSpaceOnUse"
       gradientTransform="matrix(0.46841655,0,0,0.46532808,453.32828,120.91144)"
       r="426.5625"
       fy="234.97504"
       fx="-466.875"
       cy="234.97504"
       cx="-466.875"
       id="radialGradient4675"
       xlink:href="#linearGradient4673" />
  </defs>
  <path
     d="M 121.12254,36.650912 A 215.09635,215.09448 0 0 1 413.27274,120.98053 215.09635,215.09448 0 0 1 329.16194,413.19151 215.09635,215.09448 0 0 1 36.885322,329.30096 215.09635,215.09448 0 0 1 120.55696,36.963931"
     style="fill:#0b13ff;fill-opacity:0.53846002;stroke:url(#linearGradient10463);stroke-width:0.984999"
     id="path9833" />
  <g
     transform="matrix(1.0071889,-0.15160226,0.15350619,0.9946968,-187.19524,-31.485719)"
     style="fill:#61ff61;fill-opacity:1"
     id="g10428">
    <path
       d="m 229,151.36 -28,25 42,10 -7,31 -1,60 12,18 5,-14 7,10 7,33 14,20 31,6 10,13 8,17 15,19 -29,31 -4,34 22,17 4,27 -11,12 45,-6 24,-38 26,-32 16,-33 -39,-14 -10,-11 -23,7 -7,-7 -5,-46 -1,-18 -20,12 -18,-9 -11,-22 5,-23 24,-2 14,3 8,12 18,-1 -27,-28 9,-18 29,-20 26,-15 -3,-10 -19,-2 3,-13 19,-7 10,-16 -22,-3 -43,3 -8,26 -28,-3 -1,-13 16,-24 15,-2 -2,-21 h -39 l -22,20 -17,-13 h -14 l -12,10 z"
       style="fill:#61ff61;fill-opacity:1"
       id="path10353" />
    <path
       d="m 380,113.36 -21,15 31,15 22,9 11,4 v -11 l -10,-19 -2,-11 -20,-1 h -6 z"
       style="fill:#61ff61;fill-opacity:1"
       id="path10355" />
    <path
       d="m 457,124.36 -15,4 21,28 12,-7 3,-4 10,8 21,12 -6,1 -6,10 h -7 l -10,-5 1,11 3,2 -1,4 4,8 8,-4 -5,5 5,3 12,-9 -11,-4 3,-3 v -2 l 1,-9 13,7 12,24 -16,3 -2,17 13,18 5,-2 -2,11 -10,2 1,11 16,22 21,-2 4,-28 5,4 2,31 -19,16 -17,15 14,13 11,2 5,16 1,18 -8,23 16,-31 7,-49 -2,-33 -11,-41 -20,-42 -18,-23 -20,-22 -23,-18 z"
       style="fill:#61ff61;fill-opacity:1"
       id="path10357" />
  </g>
  <metadata
     id="metadata95">
    <rdf:RDF>
      <cc:Work>
        <dc:format>image/svg+xml</dc:format>
        <dc:type
           rdf:resource="http://purl.org/dc/dcmitype/StillImage" />
        <cc:license
           rdf:resource="http://creativecommons.org/publicdomain/zero/1.0/" />
        <dc:publisher>
          <cc:Agent
             rdf:about="http://openclipart.org/">
            <dc:title>Openclipart</dc:title>
          </cc:Agent>
        </dc:publisher>
        <dc:title>Globe</dc:title>
        <dc:date>2010-09-26T10:30:40</dc:date>
        <dc:description>Earth</dc:description>
        <dc:source>https://openclipart.org/detail/87037/earth-by-stevepetmonkey</dc:source>
        <dc:creator>
          <cc:Agent>
            <dc:title>stevepetmonkey</dc:title>
          </cc:Agent>
        </dc:creator>
        <dc:subject>
          <rdf:Bag>
            <rdf:li>Earth</rdf:li>
            <rdf:li>Global</rdf:li>
            <rdf:li>Globe</rdf:li>
            <rdf:li>Planet</rdf:li>
            <rdf:li>Space</rdf:li>
          </rdf:Bag>
        </dc:subject>
      </cc:Work>
      <cc:License
         rdf:about="http://creativecommons.org/publicdomain/zero/1.0/">
        <cc:permits
           rdf:resource="http://creativecommons.org/ns#Reproduction" />
        <cc:permits
           rdf:resource="http://creativecommons.org/ns#Distribution" />
        <cc:permits
           rdf:resource="http://creativecommons.org/ns#DerivativeWorks" />
      </cc:License>
    </rdf:RDF>
  </metadata>
</svg>
