<?xml version="1.0" encoding="UTF-8" standalone="no"?>
<svg
   version="1.1"
   x="0px"
   y="0px"
   viewBox="0 0 32 32"
   xml:space="preserve"
   id="svg915"
   sodipodi:docname="export.svg"
   width="32"
   height="32"
   inkscape:version="1.2.1 (9c6d41e410, 2022-07-14)"
   xmlns:inkscape="http://www.inkscape.org/namespaces/inkscape"
   xmlns:sodipodi="http://sodipodi.sourceforge.net/DTD/sodipodi-0.dtd"
   xmlns="http://www.w3.org/2000/svg"
   xmlns:svg="http://www.w3.org/2000/svg"><defs
     id="defs919" /><sodipodi:namedview
     id="namedview917"
     pagecolor="#ffffff"
     bordercolor="#666666"
     borderopacity="1.0"
     inkscape:showpageshadow="2"
     inkscape:pageopacity="0.0"
     inkscape:pagecheckerboard="0"
     inkscape:deskcolor="#d1d1d1"
     showgrid="false"
     inkscape:zoom="8"
     inkscape:cx="30"
     inkscape:cy="44.6875"
     inkscape:window-width="2560"
     inkscape:window-height="1361"
     inkscape:window-x="2551"
     inkscape:window-y="-9"
     inkscape:window-maximized="1"
     inkscape:current-layer="g909" /><g
     id="g909"
     transform="matrix(0.46511628,0,0,0.46511628,5.7232558,6.6860465)"><path
       d="m 13.21875,12.5 7.8,-7.8 v 23.5 c 0,0.8 0.7,1.5 1.5,1.5 0.8,0 1.5,-0.7 1.5,-1.5 V 4.7 l 7.8,7.8 c 0.6,0.6 1.5,0.6 2.1,0 0.6,-0.6 0.6,-1.5 0,-2.1 L 23.61875,0 c 0,0 0,0 0,0 0,0 0,0 0,0 0,0 0,0 0,0 0,0 0,0 0,0 0,0 0,0 0,0 -0.3,-0.29999999 -0.6,-0.39999999 -1,-0.39999999 0,0 0,0 0,0 0,0 0,0 0,0 0,0 0,0 0,0 v 0 c -0.4,0 -0.8,0.2 -1,0.39999999 0,0 0,0 0,0 l -10.5,10.4 c -0.6,0.6 -0.6,1.5 0,2.1 0.6,0.6 1.6,0.6 2.1,0 z"
       id="path905" /><path
       d="m 43.11875,24.1 c -0.8,0 -1.5,0.7 -1.5,1.5 v 10.3 c 0,2 -1.6,3.7 -3.7,3.7 h -31 c -2,0 -3.7,-1.6 -3.7,-3.7 V 25.6 c 0,-0.8 -0.7,-1.5 -1.5,-1.5 -0.8,0 -1.5,0.7 -1.5,1.5 v 10.3 c 0,3.7 3,6.7 6.7,6.7 h 31 c 3.7,0 6.7,-3 6.7,-6.7 V 25.6 c 0,-0.8 -0.6,-1.5 -1.5,-1.5 z"
       id="path907" /></g></svg>
