<?xml version="1.0" encoding="UTF-8"?>
<svg xmlns="http://www.w3.org/2000/svg" width="32" height="32" viewBox="0 0 32 32" aria-hidden="true">
  <path fill="#f7f9fc" stroke="#52606d" stroke-width="1.5" stroke-linejoin="round" d="M8 3.75h10l6 6V26a2.25 2.25 0 0 1-2.25 2.25h-13.5A2.25 2.25 0 0 1 6 26V6A2.25 2.25 0 0 1 8.25 3.75Z"/>
  <path fill="#d9e2ec" stroke="#52606d" stroke-width="1.5" stroke-linejoin="round" d="M18 3.75v6h6"/>
  <path stroke="#9aa5b1" stroke-width="1.5" stroke-linecap="round" d="M10.5 12.5h9M10.5 16.5h9"/>
  <path fill="#c97a10" d="M13.2 23.7 11.6 29l4.4-2.4 4.4 2.4-1.6-5.3z"/>
  <circle cx="16" cy="21.5" r="5.25" fill="#f0b429" stroke="#8d5f0d" stroke-width="1.5"/>
  <path fill="#fff3c4" d="m16 17.7 1.04 2.11 2.33.34-1.68 1.64.4 2.31L16 23l-2.09 1.1.4-2.31-1.68-1.64 2.33-.34z"/>
</svg>
