<?xml version="1.0" encoding="UTF-8" standalone="no"?>
<!-- Uploaded to: SVG Repo, www.svgrepo.com, Generator: SVG Repo Mixer Tools -->

<svg
   fill="#000000"
   height="800px"
   width="800px"
   version="1.1"
   id="Capa_1"
   viewBox="0 0 489.645 489.645"
   xml:space="preserve"
   sodipodi:docname="mActiionRefreshPlot.svg"
   inkscape:version="1.2.1 (9c6d41e410, 2022-07-14)"
   xmlns:inkscape="http://www.inkscape.org/namespaces/inkscape"
   xmlns:sodipodi="http://sodipodi.sourceforge.net/DTD/sodipodi-0.dtd"
   xmlns="http://www.w3.org/2000/svg"
   xmlns:svg="http://www.w3.org/2000/svg"><defs
   id="defs9" /><sodipodi:namedview
   id="namedview7"
   pagecolor="#ffffff"
   bordercolor="#666666"
   borderopacity="1.0"
   inkscape:showpageshadow="2"
   inkscape:pageopacity="0.0"
   inkscape:pagecheckerboard="0"
   inkscape:deskcolor="#d1d1d1"
   showgrid="false"
   inkscape:zoom="1.28375"
   inkscape:cx="282.37585"
   inkscape:cy="400"
   inkscape:window-width="2560"
   inkscape:window-height="1351"
   inkscape:window-x="-9"
   inkscape:window-y="-9"
   inkscape:window-maximized="1"
   inkscape:current-layer="Capa_1" />
<g
   id="g4"
   transform="matrix(0.80623167,0,0,0.75490344,47.438605,60.005197)">
	<path
   d="m 460.656,132.911 c -58.7,-122.1 -212.2,-166.5 -331.8,-104.1 -9.4,5.2 -13.5,16.6 -8.3,27 5.2,9.4 16.6,13.5 27,8.3 99.9,-52 227.4,-14.9 276.7,86.3 65.4,134.3 -19,236.7 -87.4,274.6 -93.1,51.7 -211.2,17.4 -267.6,-70.7 l 69.3,14.5 c 10.4,2.1 21.8,-4.2 23.9,-15.6 2.1,-10.4 -4.2,-21.8 -15.6,-23.9 l -122.8,-25 c -20.6,-2 -25,16.6 -23.9,22.9 l 15.6,123.8 c 1,10.4 9.4,17.7 19.8,17.7 12.8,0 20.8,-12.5 19.8,-23.9 l -6,-50.5 c 57.4,70.8 170.3,131.2 307.4,68.2 58.1,-30 191.5,-147.7 103.9,-329.6 z"
   id="path2" />
</g>
</svg>
