<?xml version="1.0" encoding="UTF-8" standalone="no"?>
<svg
   height="24"
   width="24"
   version="1.1"
   id="svg18"
   sodipodi:docname="mActionZoomRect.svg"
   inkscape:version="1.2.1 (9c6d41e410, 2022-07-14)"
   xmlns:inkscape="http://www.inkscape.org/namespaces/inkscape"
   xmlns:sodipodi="http://sodipodi.sourceforge.net/DTD/sodipodi-0.dtd"
   xmlns="http://www.w3.org/2000/svg"
   xmlns:svg="http://www.w3.org/2000/svg">
  <defs
     id="defs22">
    <inkscape:perspective
       sodipodi:type="inkscape:persp3d"
       inkscape:vp_x="0 : 12 : 1"
       inkscape:vp_y="0 : 1000 : 0"
       inkscape:vp_z="24 : 12 : 1"
       inkscape:persp3d-origin="12 : 8 : 1"
       id="perspective287" />
  </defs>
  <sodipodi:namedview
     id="namedview20"
     pagecolor="#ffffff"
     bordercolor="#666666"
     borderopacity="1.0"
     inkscape:showpageshadow="2"
     inkscape:pageopacity="0.0"
     inkscape:pagecheckerboard="0"
     inkscape:deskcolor="#d1d1d1"
     showgrid="false"
     inkscape:zoom="24.576089"
     inkscape:cx="9.7655896"
     inkscape:cy="10.843873"
     inkscape:window-width="2560"
     inkscape:window-height="1361"
     inkscape:window-x="-9"
     inkscape:window-y="-9"
     inkscape:window-maximized="1"
     inkscape:current-layer="g10" />
  <path
     d="M 2.7114981,2.6639307 23.371297,2.6255836 23.286761,15.372947 2.6279113,15.26813 Z"
     fill="#eeeeec"
     opacity=".99"
     stroke="#898b86"
     stroke-dashoffset="0.96"
     id="path2"
     style="opacity:1;stroke:#0010ff;stroke-width:1.24832;stroke-opacity:1" />
  <path
     d="m10 5c2-3 4.442-3.398 6-2s-2 1-4 3 0 6-2 6-2-4 0-7z"
     fill="#fcffff"
     fill-rule="evenodd"
     opacity=".7"
     id="path12" />
  <path
     d="m2 21 4-4"
     opacity=".5"
     stroke="#fcffff"
     stroke-linecap="round"
     stroke-linejoin="round"
     id="path14" />
  <g
     stroke="#505050"
     stroke-linejoin="round"
     id="g10"
     style="opacity:0.8"
     transform="translate(0.09415914,-0.14054804)">
    <path
       d="m 7.5,14.5 c 0,2 2,2 2,2 l -7,7 -2,-2 z"
       fill="#ffcc30"
       fill-rule="evenodd"
       id="path4" />
    <path
       d="M 17.961,7 A 5.961,6.074 0 1 1 6.04,7 5.961,6.074 0 1 1 17.96,7 Z"
       fill="#e6e6e6"
       opacity="0.8"
       stroke-dashoffset="7"
       stroke-linecap="round"
       stroke-width="0.752"
       transform="matrix(1.342,0,0,1.31704,-1.604,0.28)"
       id="path6" />
    <path
       d="m 6,16 2,-2 2,2 -2,2 z"
       fill-rule="evenodd"
       id="path8" />
    <path
       d="m 2.0155266,20.898617 4,-4"
       opacity="0.5"
       stroke="#fcffff"
       stroke-linecap="round"
       stroke-linejoin="round"
       id="path14-1" />
  </g>
</svg>
