<?xml version="1.0" encoding="UTF-8" standalone="no"?>
<svg
   height="24"
   width="24"
   version="1.1"
   id="svg2513"
   sodipodi:docname="file_new.svg"
   inkscape:version="1.2.1 (9c6d41e410, 2022-07-14)"
   xmlns:inkscape="http://www.inkscape.org/namespaces/inkscape"
   xmlns:sodipodi="http://sodipodi.sourceforge.net/DTD/sodipodi-0.dtd"
   xmlns="http://www.w3.org/2000/svg"
   xmlns:svg="http://www.w3.org/2000/svg">
  <defs
     id="defs2517" />
  <sodipodi:namedview
     id="namedview2515"
     pagecolor="#ffffff"
     bordercolor="#666666"
     borderopacity="1.0"
     inkscape:showpageshadow="2"
     inkscape:pageopacity="0.0"
     inkscape:pagecheckerboard="0"
     inkscape:deskcolor="#d1d1d1"
     showgrid="false"
     inkscape:zoom="42.791667"
     inkscape:cx="12.011685"
     inkscape:cy="12.023369"
     inkscape:window-width="1450"
     inkscape:window-height="1243"
     inkscape:window-x="2745"
     inkscape:window-y="70"
     inkscape:window-maximized="0"
     inkscape:current-layer="svg2513" />
  <g
     fill-rule="evenodd"
     stroke="#727272"
     stroke-linejoin="round"
     transform="translate(0 -1028.3622)"
     id="g2511">
    <path
       d="m4.5 1050.8618v-21h10l5 5v16.0004z"
       fill="#fff"
       id="path2507" />
    <path
       d="m14.5 1029.8618v5h5z"
       fill="#f0f0f0"
       id="path2509" />
  </g>
  <g
     transform="matrix(0.6923,0,0,0.6923,1.4622214,1.836126)"
     id="g8">
    <rect
       fill="#c4a000"
       height="13"
       rx="2.615"
       width="13"
       x="19"
       y="19"
       id="rect2" />
    <path
       d="m 20.3,25.5 h 10.4 v -2.6 c 0,-2.6 -0.65,-2.6 -5.2,-2.6 -4.55,0 -5.2,0 -5.2,2.6 z"
       fill="#fcffff"
       fill-rule="evenodd"
       opacity="0.3"
       id="path4" />
    <path
       d="m -6.457,-5.813 v 0.76 c 0,1.04 -0.16,1.76 -0.64,2.68 -0.72,1.56 -0.8,1.76 -0.8,2.36 0,1.16 0.88,2.12 1.92,2.12 1.08,0 1.92,-0.96 1.92,-2.16 0,-0.4 -0.12,-0.92 -0.4,-1.44 -0.92,-1.96 -1,-2.28 -1,-3.56 v -0.76 l 0.64,0.4 c 0.84,0.48 1.48,1.04 2.04,1.84 1.32,1.8 1.76,2.16 2.84,2.16 1,0 1.8,-0.76 1.8,-1.76 0,-1.24 -1.04,-2.16 -2.6,-2.28 -1.96,-0.12 -2.32,-0.2 -3.56,-0.88 l -0.64,-0.36 0.64,-0.36 c 0.92,-0.52 1.6,-0.76 2.64,-0.8 1.6,-0.16 1.72,-0.16 2.2,-0.36 0.8,-0.4 1.32,-1.12 1.32,-1.96 0,-1.04 -0.84,-1.84 -1.88,-1.84 -0.88,0 -1.6,0.44 -2.24,1.4 -1.12,1.68 -1.36,1.92 -2.56,2.64 l -0.64,0.4 v -0.76 c 0,-1 0.16,-1.76 0.64,-2.68 0.76,-1.6 0.8,-1.76 0.8,-2.32 0,-1.2 -0.88,-2.16 -1.96,-2.16 -1.04,0 -1.92,0.96 -1.92,2.12 0,0.44 0.12,0.96 0.4,1.48 0.96,2 1.04,2.28 1.04,3.56 v 0.76 l -0.64,-0.4 c -0.92,-0.52 -1.44,-1.04 -2.04,-1.88 -0.8,-1.2 -0.8,-1.2 -1.12,-1.52 -0.44,-0.4 -1.08,-0.64 -1.6,-0.64 -1.08,0 -1.92,0.84 -1.92,1.84 0,1.24 1,2.12 2.56,2.24 2.04,0.12 2.36,0.2 3.6,0.88 l 0.64,0.36 -0.64,0.4 c -0.84,0.48 -1.64,0.72 -2.64,0.8 -1.56,0.08 -1.68,0.12 -2.2,0.32 -0.8,0.36 -1.32,1.12 -1.32,1.96 0,1 0.84,1.84 1.88,1.84 0.88,0 1.64,-0.48 2.24,-1.4 1.08,-1.6 1.4,-1.96 2.56,-2.64 z"
       fill="#ffffff"
       stroke="#ffffff"
       stroke-width="0.497"
       transform="matrix(0.60272,0,0,0.60366,29.09,29.54)"
       id="path6" />
  </g>
</svg>
