<?xml version="1.0" encoding="UTF-8" standalone="no"?>
<svg
   viewBox="0 0 32 32"
   x="0px"
   y="0px"
   version="1.1"
   id="svg476"
   sodipodi:docname="mActionLineEdit.svg"
   width="32"
   height="32"
   inkscape:version="1.2.1 (9c6d41e410, 2022-07-14)"
   xmlns:inkscape="http://www.inkscape.org/namespaces/inkscape"
   xmlns:sodipodi="http://sodipodi.sourceforge.net/DTD/sodipodi-0.dtd"
   xmlns="http://www.w3.org/2000/svg"
   xmlns:svg="http://www.w3.org/2000/svg">
  <defs
     id="defs480" />
  <sodipodi:namedview
     id="namedview478"
     pagecolor="#ffffff"
     bordercolor="#666666"
     borderopacity="1.0"
     inkscape:showpageshadow="2"
     inkscape:pageopacity="0.0"
     inkscape:pagecheckerboard="0"
     inkscape:deskcolor="#d1d1d1"
     showgrid="false"
     inkscape:zoom="25.675"
     inkscape:cx="14.333009"
     inkscape:cy="20"
     inkscape:window-width="2560"
     inkscape:window-height="1361"
     inkscape:window-x="2551"
     inkscape:window-y="-9"
     inkscape:window-maximized="1"
     inkscape:current-layer="svg476" />
  <g
     id="g470">
    <path
       d="M 18.16113,22.96777 H 5 a 2.0026,2.0026 0 0 1 -2,-2 v -10 a 2.0026,2.0026 0 0 1 2,-2 h 13.09663 a 1.0001,1.0001 0 0 1 0,2 H 5 v 10 h 13.16113 a 1.00019,1.00019 0 0 1 0,2 z M 29,10.96777 v 10 a 2.0026,2.0026 0 0 1 -2,2 H 23 V 25 h 0.64545 a 1.00019,1.00019 0 0 1 6e-5,2 h -3.67767 a 1.00019,1.00019 0 0 1 -7e-5,-2 H 21 C 20.99766,22.98807 21.0011,9.3702 21,7 h -1.03223 a 1,1 0 0 1 0,-2 h 3.67768 a 1.00019,1.00019 0 0 1 6e-5,2 H 23 v 1.96777 h 4 a 2.0026,2.0026 0 0 1 2,2 z m -2,0 h -4 v 10 h 4 z"
       id="path468" />
  </g>
  <text
     x="0"
     y="47"
     fill="#000000"
     font-size="5px"
     font-weight="bold"
     font-family="'Helvetica Neue', Helvetica, Arial-Unicode, Arial, Sans-serif"
     id="text472">Created by Zky Icon</text>
  <text
     x="0"
     y="52"
     fill="#000000"
     font-size="5px"
     font-weight="bold"
     font-family="'Helvetica Neue', Helvetica, Arial-Unicode, Arial, Sans-serif"
     id="text474">from the Noun Project</text>
</svg>
