<?xml version="1.0" encoding="UTF-8" standalone="no"?>
<svg
   height="24"
   width="24"
   version="1.1"
   id="svg1142"
   sodipodi:docname="mActionFilePrintPreview.svg"
   inkscape:version="1.2.1 (9c6d41e410, 2022-07-14)"
   xmlns:inkscape="http://www.inkscape.org/namespaces/inkscape"
   xmlns:sodipodi="http://sodipodi.sourceforge.net/DTD/sodipodi-0.dtd"
   xmlns="http://www.w3.org/2000/svg"
   xmlns:svg="http://www.w3.org/2000/svg">
  <defs
     id="defs1146" />
  <sodipodi:namedview
     id="namedview1144"
     pagecolor="#ffffff"
     bordercolor="#666666"
     borderopacity="1.0"
     inkscape:showpageshadow="2"
     inkscape:pageopacity="0.0"
     inkscape:pagecheckerboard="0"
     inkscape:deskcolor="#d1d1d1"
     showgrid="false"
     inkscape:zoom="42.791667"
     inkscape:cx="11.988315"
     inkscape:cy="12.023369"
     inkscape:window-width="2560"
     inkscape:window-height="1361"
     inkscape:window-x="2551"
     inkscape:window-y="-9"
     inkscape:window-maximized="1"
     inkscape:current-layer="svg1142" />
  <filter
     id="a"
     height="1.5"
     width="1.5"
     x="-.25"
     y="-.25">
    <feGaussianBlur
       in="SourceAlpha"
       result="blur"
       stdDeviation="2"
       id="feGaussianBlur1101" />
    <feColorMatrix
       result="bluralpha"
       type="matrix"
       values="1 0 0 0 0 0 1 0 0 0 0 0 1 0 0 0 0 0 0.351000 0"
       id="feColorMatrix1103" />
    <feOffset
       dx="7.5"
       dy="7.5"
       in="bluralpha"
       result="offsetBlur"
       id="feOffset1105" />
    <feMerge
       id="feMerge1111">
      <feMergeNode
         in="offsetBlur"
         id="feMergeNode1107" />
      <feMergeNode
         in="SourceGraphic"
         id="feMergeNode1109" />
    </feMerge>
  </filter>
  <g
     transform="translate(0 -8)"
     id="g1140">
    <g
       fill="none"
       filter="url(#a)"
       stroke="#415a75"
       transform="matrix(.05336966 0 0 .05336966 -68.033684 42.105048)"
       id="g1114" />
    <rect
       fill="#6d97c4"
       height="10"
       rx="2"
       stroke="#415a75"
       stroke-linecap="round"
       width="19"
       x="2.5"
       y="14.5"
       id="rect1116" />
    <path
       d="m3 15v3c0 1 2 1 3 1h12c1 0 3 0 3-1v-3z"
       fill="#90b1d1"
       id="path1118" />
    <path
       d="m6.5 20.5h11v4h-11z"
       fill="#7c7c7c"
       stroke="#545658"
       stroke-linecap="round"
       id="path1120" />
    <rect
       fill="none"
       height="10"
       rx="2"
       stroke="#415a75"
       stroke-linecap="round"
       width="19"
       x="2.5"
       y="14.5"
       id="rect1122" />
    <path
       d="m7.5 10.5h9v6h-9z"
       fill="#ededed"
       stroke="#959595"
       stroke-linecap="round"
       id="path1124" />
    <path
       d="m7.5 21.5h9v7.9999995h-9z"
       fill="#fbfefe"
       stroke="#959595"
       stroke-linecap="round"
       id="path1126" />
    <g
       fill="none"
       id="g1138">
      <path
         d="m9 25.5h6"
         stroke="#969696"
         id="path1128" />
      <path
         d="m9 27.5h6"
         stroke="#969696"
         id="path1130" />
      <path
         d="m9 23.5h6"
         stroke="#969696"
         id="path1132" />
      <path
         d="m7.0000002 21.500001h9.9999998"
         stroke="#767676"
         id="path1134" />
      <path
         d="m7.0000002 22.5h9.9999998"
         opacity=".5"
         stroke="#767676"
         id="path1136" />
    </g>
  </g>
  <g
     id="g4786"
     transform="matrix(-0.05252246,-1.0601508,1.0601508,-0.05252246,5.8685604,19.904506)">
    <path
       d="m 2.5137401,15.01843 2.957881,-2.957881"
       opacity="0.5"
       stroke="#fcffff"
       stroke-linecap="round"
       stroke-linejoin="round"
       id="path14"
       style="stroke-width:0.73947" />
    <g
       stroke="#505050"
       stroke-linejoin="round"
       id="g10"
       style="opacity:0.8"
       transform="matrix(0.73947032,0,0,0.73947032,1.1044274,-0.6143776)">
      <path
         d="m 7.5,14.5 c 0,2 2,2 2,2 l -7,7 -2,-2 z"
         fill="#ffcc30"
         fill-rule="evenodd"
         id="path4" />
      <path
         d="M 17.961,7 A 5.961,6.074 0 1 1 6.04,7 5.961,6.074 0 1 1 17.96,7 Z"
         fill="#e6e6e6"
         opacity="0.8"
         stroke-dashoffset="7"
         stroke-linecap="round"
         stroke-width="0.752"
         transform="matrix(1.342,0,0,1.31704,-1.604,0.28)"
         id="path6" />
      <path
         d="m 6,16 2,-2 2,2 -2,2 z"
         fill-rule="evenodd"
         id="path8" />
      <path
         d="m 2.0155266,20.898617 4,-4"
         opacity="0.5"
         stroke="#fcffff"
         stroke-linecap="round"
         stroke-linejoin="round"
         id="path14-1" />
    </g>
  </g>
</svg>
