<?xml version="1.0" encoding="UTF-8" standalone="no"?>
<!-- Uploaded to: SVG Repo, www.svgrepo.com, Generator: SVG Repo Mixer Tools -->

<svg
   fill="#000000"
   height="800px"
   width="800px"
   version="1.1"
   id="Layer_1"
   viewBox="0 0 512 512"
   xml:space="preserve"
   sodipodi:docname="mActionPlotRuler.svg"
   inkscape:version="1.2.1 (9c6d41e410, 2022-07-14)"
   xmlns:inkscape="http://www.inkscape.org/namespaces/inkscape"
   xmlns:sodipodi="http://sodipodi.sourceforge.net/DTD/sodipodi-0.dtd"
   xmlns="http://www.w3.org/2000/svg"
   xmlns:svg="http://www.w3.org/2000/svg"><defs
   id="defs11" /><sodipodi:namedview
   id="namedview9"
   pagecolor="#ffffff"
   bordercolor="#666666"
   borderopacity="1.0"
   inkscape:showpageshadow="2"
   inkscape:pageopacity="0.0"
   inkscape:pagecheckerboard="0"
   inkscape:deskcolor="#d1d1d1"
   showgrid="false"
   inkscape:zoom="1.28375"
   inkscape:cx="399.61052"
   inkscape:cy="400"
   inkscape:window-width="2560"
   inkscape:window-height="1361"
   inkscape:window-x="2551"
   inkscape:window-y="-9"
   inkscape:window-maximized="1"
   inkscape:current-layer="Layer_1" />
<g
   id="g6">
	<g
   id="g4">
		<path
   d="M402.826,0L0.001,402.827L109.174,512l402.826-402.826L402.826,0z M43.671,402.827l25.789-25.789l32.752,32.752    l21.834-21.834l-32.752-32.752l25.789-25.789l21.834,21.834l21.834-21.834l-21.834-21.834l25.789-25.789l21.834,21.834    l21.834-21.834l-21.834-21.834l25.79-25.79l32.752,32.752l21.834-21.834l-32.752-32.752l25.789-25.789l21.834,21.834    l21.834-21.834l-21.834-21.834l25.789-25.789l21.835,21.834l21.834-21.834l-21.834-21.834l25.79-25.79l32.752,32.752    l21.834-21.834L377.037,69.46l25.789-25.789l65.504,65.504L109.174,468.33L43.671,402.827z"
   id="path2" />
	</g>
</g>
</svg>
