<?xml version="1.0" encoding="UTF-8" standalone="no"?>
<!-- Uploaded to: SVG Repo, www.svgrepo.com, Generator: SVG Repo Mixer Tools -->

<svg
   width="800px"
   height="800px"
   viewBox="0 0 24 24"
   fill="none"
   version="1.1"
   id="svg1"
   sodipodi:docname="mActionMovePointsAutsidePolygons - Copy.svg"
   inkscape:version="1.4.2 (f4327f4, 2025-05-13)"
   xmlns:inkscape="http://www.inkscape.org/namespaces/inkscape"
   xmlns:sodipodi="http://sodipodi.sourceforge.net/DTD/sodipodi-0.dtd"
   xmlns="http://www.w3.org/2000/svg"
   xmlns:svg="http://www.w3.org/2000/svg">
  <defs
     id="defs1">
    <marker
       id="arrowhead"
       markerWidth="4"
       markerHeight="4"
       refX="4"
       refY="2"
       orient="auto"
       markerUnits="strokeWidth">
      <polygon
         points="0,0 4,2 0,4"
         fill="#0000ff"
         id="polygon1" />
    </marker>
  </defs>
  <sodipodi:namedview
     id="namedview1"
     pagecolor="#ffffff"
     bordercolor="#000000"
     borderopacity="0.25"
     inkscape:showpageshadow="2"
     inkscape:pageopacity="0.0"
     inkscape:pagecheckerboard="0"
     inkscape:deskcolor="#d1d1d1"
     inkscape:zoom="2.26875"
     inkscape:cx="399.55923"
     inkscape:cy="399.55923"
     inkscape:window-width="3840"
     inkscape:window-height="2054"
     inkscape:window-x="-11"
     inkscape:window-y="-11"
     inkscape:window-maximized="1"
     inkscape:current-layer="svg1" />
  <circle
     style="fill:#ff0005;fill-opacity:1;stroke:#0000ff;stroke-width:0.0257386"
     id="path1"
     cx="3.4247935"
     cy="4.2446284"
     r="2.1289256" />
  <path
     style="fill:#640002;fill-opacity:1;stroke:#640002;stroke-width:0.0257386;stroke-opacity:1"
     id="path2"
     d="m 11.016399,23.496295 c -0.0027,-0.153318 0.02825,-0.305452 0.05577,-0.455511 0.02957,-0.161184 0.06105,-0.322011 0.09147,-0.483036 0.06235,-0.358862 0.137122,-0.715362 0.204689,-1.073239 0.0164,-0.08684 0.03365,-0.173537 0.04845,-0.260666 0.01705,-0.100367 0.03139,-0.201174 0.04708,-0.301761 0.05759,-0.348365 0.12028,-0.69614 0.20052,-1.040096 0.02573,-0.110302 0.0538,-0.220046 0.08024,-0.330179 0.04948,-0.279728 0.109875,-0.557462 0.185178,-0.831416 0.04867,-0.177076 0.06416,-0.220193 0.118607,-0.391513 0.09644,-0.295694 0.216613,-0.58281 0.34476,-0.865937 0.06272,-0.137056 0.120614,-0.276295 0.186838,-0.411745 0.02993,-0.06122 0.125911,-0.247842 0.155266,-0.305146 0.175772,-0.315995 0.335857,-0.640258 0.507375,-0.958496 0.109622,-0.193799 0.221761,-0.386446 0.341163,-0.574437 0.02228,-0.03508 0.103166,-0.157154 0.127696,-0.194273 0.09033,-0.138362 0.184362,-0.274216 0.281153,-0.408134 0.08225,-0.117926 0.167716,-0.233347 0.258247,-0.345037 0.01118,-0.014 0.04878,-0.05964 0.05836,-0.07687 0.01909,-0.03435 0.05135,-0.118283 0.06378,-0.149512 0.0312,-0.07842 0.04512,-0.114706 0.0759,-0.193918 0.07972,-0.196523 0.153495,-0.395481 0.236035,-0.590847 0.06563,-0.154292 0.140931,-0.30398 0.218199,-0.452678 0.06751,-0.124282 0.139553,-0.246408 0.21727,-0.3646 0.08055,-0.115881 0.168016,-0.226856 0.253926,-0.338812 0.120459,-0.155692 0.258883,-0.29643 0.403152,-0.429949 0.117918,-0.09915 0.233855,-0.200601 0.35081,-0.300883 0.142318,-0.117445 0.28712,-0.231831 0.429928,-0.348683 0.124364,-0.09475 0.237382,-0.202655 0.34994,-0.310817 0.158424,-0.172106 0.329961,-0.327268 0.511127,-0.474855 0.169597,-0.130326 0.330104,-0.2726551 0.503381,-0.3982005 0.045,-0.032607 0.09125,-0.063461 0.136878,-0.095192 0.232512,-0.1537335 0.479028,-0.285138 0.731662,-0.4024842 0.134796,-0.062611 0.33046,-0.1456113 0.467554,-0.2045622 0.07599,-0.032524 0.151889,-0.065259 0.227969,-0.097571 0.14718,-0.062509 0.300603,-0.128322 0.45085,-0.1829949 0.245136,-0.089202 0.497162,-0.1599693 0.746481,-0.2362308 0.228111,-0.064115 0.452605,-0.1398489 0.677882,-0.2129943 0.177767,-0.057719 0.356397,-0.112716 0.534266,-0.1701204 0.146744,-0.052135 0.294479,-0.1041102 0.436623,-0.1681272 0.0085,-0.00385 0.01717,-0.00747 0.02559,-0.011564 0.01865,-0.00907 0.0189,-0.011888 0.03798,-0.017229 0.02591,-0.00725 0.05447,-0.00702 0.08098,-0.00853 0.01564,-6.06e-4 0.03127,-0.00136 0.04691,-0.00182 0.04526,-0.00131 0.05257,-9e-5 0.09747,-0.00353 0.04495,-0.00343 0.08916,-0.010957 0.133615,-0.018152 0.06468,-0.011931 0.128518,-0.027159 0.1932,-0.039337 0.06668,-0.013137 0.134524,-0.016107 0.202255,-0.017973 0.08848,-0.00608 0.177282,-0.010868 0.264338,-0.028532 0.0367,-0.0085 0.07368,-0.015247 0.111011,-0.020183 0,0 -0.367145,-0.2579253 -0.367145,-0.2579253 v 0 c -0.03661,0.0069 -0.0729,0.015175 -0.109346,0.022863 -0.08591,0.014958 -0.173089,0.019933 -0.260153,0.023126 -0.06945,0.00273 -0.138602,0.00805 -0.206684,0.022984 -0.06426,0.011645 -0.127425,0.028203 -0.19184,0.039052 -0.09141,0.01469 -0.183383,0.01844 -0.275864,0.020396 -0.03136,0.0029 -0.04194,0.00206 -0.06992,0.010154 -0.03021,0.00874 -0.05626,0.026837 -0.0844,0.040216 -0.134361,0.066612 -0.273247,0.1243428 -0.413259,0.1778253 -0.394398,0.1406109 -0.793184,0.2688822 -1.192423,0.3949551 -0.251171,0.076028 -0.504252,0.1474125 -0.751185,0.2366577 -0.204461,0.073896 -0.25546,0.099212 -0.452041,0.1839186 -0.07584,0.032679 -0.151674,0.065372 -0.227512,0.098059 -0.235083,0.102969 -0.470254,0.205371 -0.701804,0.3161592 -0.07139,0.034159 -0.143244,0.067489 -0.213204,0.1044978 -0.09637,0.050978 -0.210705,0.1254768 -0.302906,0.1836036 -0.07027,0.047602 -0.198449,0.1331517 -0.267853,0.1850346 -0.03294,0.024627 -0.06406,0.051609 -0.09618,0.077294 -0.09525,0.076155 -0.190445,0.1523558 -0.284564,0.2299139 -0.06755,0.05512 -0.135802,0.109783 -0.201312,0.167351 -0.110787,0.09735 -0.213262,0.203601 -0.320109,0.305142 -0.112194,0.106923 -0.227338,0.210563 -0.347336,0.308722 -0.141797,0.118586 -0.28702,0.232769 -0.431246,0.348347 -0.05973,0.04955 -0.117342,0.10121 -0.17641,0.151527 -0.03541,0.03016 -0.08093,0.06751 -0.115736,0.09853 -0.01982,0.01767 -0.03906,0.03598 -0.05858,0.05397 -0.07228,0.07078 -0.142328,0.143534 -0.212516,0.21639 -0.04856,0.05041 -0.100084,0.103349 -0.146528,0.155954 -0.01766,0.02 -0.03433,0.04084 -0.05149,0.06126 -0.08567,0.113334 -0.174408,0.224458 -0.254089,0.342187 -0.07887,0.119399 -0.155014,0.240941 -0.218897,0.369158 -0.07622,0.150589 -0.155341,0.300104 -0.216732,0.45758 -0.07979,0.196845 -0.154745,0.395629 -0.235015,0.592296 -0.05553,0.139549 -0.105622,0.285416 -0.199692,0.404653 -0.0875,0.114678 -0.174071,0.230067 -0.256799,0.348254 -0.09559,0.135395 -0.191669,0.270638 -0.275676,0.413659 -0.161305,0.254503 -0.308291,0.517416 -0.453767,0.781227 -0.09429,0.172979 -0.185857,0.3474 -0.280073,0.520412 -0.02715,0.04986 -0.05555,0.09903 -0.08249,0.148996 -0.0066,0.01233 -0.146654,0.280428 -0.150015,0.28686 -0.0278,0.05231 -0.05534,0.104745 -0.08339,0.156915 -0.03654,0.06797 -0.10865,0.197456 -0.144839,0.269746 -0.04672,0.09334 -0.08585,0.190386 -0.126166,0.286562 -0.122239,0.288258 -0.234338,0.580771 -0.332754,0.878086 -0.03284,0.109737 -0.08651,0.286588 -0.115796,0.395302 -0.07366,0.273462 -0.1354,0.550322 -0.195612,0.826968 -0.02476,0.112887 -0.04946,0.222479 -0.07152,0.336054 -0.06776,0.348899 -0.121828,0.700292 -0.184635,1.050076 -0.03373,0.186203 -0.06562,0.372742 -0.100398,0.558752 -0.04523,0.241918 -0.05912,0.29302 -0.105147,0.533538 -0.01692,0.0884 -0.0322,0.177106 -0.04891,0.265546 -0.01719,0.09095 -0.03518,0.181753 -0.05277,0.272629 -0.01837,0.08501 -0.03605,0.170179 -0.05512,0.255041 -0.04983,0.221824 -0.112794,0.441957 -0.139713,0.668213 z" />
  <g
     id="g1"
     transform="rotate(35.453509,25.01396,2.7622347)">
    <path
       style="fill:#0000ff;fill-opacity:1;stroke:#0000ff;stroke-width:0.369972px;stroke-linecap:butt;stroke-linejoin:miter;stroke-opacity:1"
       d="m 18.026432,18.719174 0.01499,-3.551252 4.004643,1.983991 z"
       id="path12468" />
    <rect
       style="fill:#0000ff;fill-opacity:1;stroke:#0000ff;stroke-width:0.0250729;stroke-opacity:1"
       id="rect1"
       width="9.481658"
       height="1.3626491"
       x="8.3831387"
       y="16.277353" />
  </g>
</svg>
