<?xml version="1.0" encoding="UTF-8" standalone="no"?>
<svg
   height="24"
   width="24"
   version="1.1"
   id="svg2513"
   sodipodi:docname="mActionFileExport.svg"
   inkscape:version="1.2.1 (9c6d41e410, 2022-07-14)"
   xmlns:inkscape="http://www.inkscape.org/namespaces/inkscape"
   xmlns:sodipodi="http://sodipodi.sourceforge.net/DTD/sodipodi-0.dtd"
   xmlns="http://www.w3.org/2000/svg"
   xmlns:svg="http://www.w3.org/2000/svg">
  <defs
     id="defs2517" />
  <sodipodi:namedview
     id="namedview2515"
     pagecolor="#ffffff"
     bordercolor="#666666"
     borderopacity="1.0"
     inkscape:showpageshadow="2"
     inkscape:pageopacity="0.0"
     inkscape:pagecheckerboard="0"
     inkscape:deskcolor="#d1d1d1"
     showgrid="false"
     inkscape:zoom="42.791667"
     inkscape:cx="11.030185"
     inkscape:cy="12.093476"
     inkscape:window-width="2560"
     inkscape:window-height="1361"
     inkscape:window-x="-9"
     inkscape:window-y="-9"
     inkscape:window-maximized="1"
     inkscape:current-layer="svg2513" />
  <g
     id="g302"
     transform="matrix(0.19512195,0,0,0.1953125,2,0)">
    <path
       d="M 69.78,0.72 C 69.3,0.29 68.62,0 67.95,0 67.81,0 67.66,0 67.52,0.05 H 6.1 C 4.46,0.05 2.91,0.73 1.8,1.84 0.68,2.95 0,4.45 0,6.14 v 110.65 c 0,1.69 0.68,3.19 1.79,4.3 1.11,1.11 2.61,1.79 4.3,1.79 31.03,0 59.35,0 90.22,0 1.69,0 3.19,-0.68 4.3,-1.79 1.11,-1.11 1.79,-2.61 1.79,-4.3 V 35.52 c 0.05,-0.24 0.1,-0.43 0.1,-0.68 0,-0.82 -0.39,-1.55 -0.92,-2.08 L 70.12,0.92 C 70.02,0.82 69.97,0.78 69.88,0.73 h -0.1 z M 48.51,54.73 v 34.89 c 0,1.49 1.2,2.69 2.73,2.69 1.49,0 2.73,-1.2 2.73,-2.69 V 54.76 l 12.52,10.93 c 1.11,0.98 2.82,0.89 3.8,-0.22 0.98,-1.11 0.89,-2.79 -0.22,-3.77 L 53.05,46.84 C 52,45.92 50.45,45.95 49.44,46.87 L 32.45,61.7 c -1.11,0.98 -1.24,2.66 -0.22,3.77 0.98,1.11 2.69,1.2 3.8,0.22 L 48.55,54.76 Z M 65.19,5.51 v 23.83 c 0,2.27 0.92,4.35 2.42,5.85 1.5,1.5 3.58,2.42 5.85,2.42 h 23.39 v 79.19 c 0,0.15 -0.05,0.34 -0.19,0.43 -0.1,0.1 -0.24,0.19 -0.43,0.19 -24.57,0 -66.28,0 -90.18,0 -0.15,0 -0.34,-0.05 -0.43,-0.19 -0.1,-0.1 -0.19,-0.29 -0.19,-0.43 V 6.14 C 5.43,5.95 5.48,5.8 5.62,5.71 5.72,5.61 5.86,5.52 6.05,5.52 h 59.1 0.04 z m 5.46,23.83 V 9.38 L 93.12,32.14 H 73.45 c -0.77,0 -1.45,-0.34 -1.98,-0.82 -0.48,-0.49 -0.82,-1.21 -0.82,-1.98 z"
       id="path300" />
  </g>
</svg>
