<?xml version="1.0" encoding="UTF-8" standalone="no"?>
<svg
   class="svg-icon"
   style="overflow:hidden;fill:currentColor"
   viewBox="0 0 32 32"
   version="1.1"
   id="svg8"
   sodipodi:docname="mActionImport.svg"
   width="32"
   height="32"
   inkscape:version="1.2.1 (9c6d41e410, 2022-07-14)"
   xmlns:inkscape="http://www.inkscape.org/namespaces/inkscape"
   xmlns:sodipodi="http://sodipodi.sourceforge.net/DTD/sodipodi-0.dtd"
   xmlns="http://www.w3.org/2000/svg"
   xmlns:svg="http://www.w3.org/2000/svg">
  <defs
     id="defs12" />
  <sodipodi:namedview
     id="namedview10"
     pagecolor="#ffffff"
     bordercolor="#666666"
     borderopacity="1.0"
     inkscape:showpageshadow="2"
     inkscape:pageopacity="0.0"
     inkscape:pagecheckerboard="0"
     inkscape:deskcolor="#d1d1d1"
     showgrid="false"
     inkscape:zoom="35.78125"
     inkscape:cx="15.608734"
     inkscape:cy="16"
     inkscape:window-width="2560"
     inkscape:window-height="1361"
     inkscape:window-x="2551"
     inkscape:window-y="-9"
     inkscape:window-maximized="1"
     inkscape:current-layer="svg8" />
  <path
     d="m 18,25.487201 m -2,0 v 0 q -2,0 -2,-2 V 3.4872008 q 0,-2 2,-2 v 0 q 2,0 2,2 V 23.487201 q 0,2 -2,2 z"
     fill="#000000"
     opacity="0.3"
     id="path2"
     style="opacity:1;fill:#000000;stroke-width:0.046875"
     inkscape:highlight-color="#000000" />
  <path
     d="m 23.999997,11.00918 a 1.6,1.499344 0 0 1 0,-2.9986797 h 1.6 a 6.4000001,5.9973762 0 0 1 6.4,5.9973697 V 26.00262 A 6.4000001,5.9973762 0 0 1 25.599997,32 H 6.4 A 6.4000001,5.9973762 0 0 1 0,26.00262 V 13.99738 A 6.4000001,5.9973762 0 0 1 6.4,8.0000003 H 8 A 1.6000011,1.499345 0 1 1 8,10.99869 H 6.4 a 3.2,2.998688 0 0 0 -3.2,2.99869 v 12.00524 a 3.2,2.998688 0 0 0 3.2,2.99869 h 19.199997 a 3.2,2.998688 0 0 0 3.2,-2.99869 V 14.00787 a 3.2,2.998688 0 0 0 -3.2,-2.99869 z"
     fill="#000000"
     opacity="0.3"
     id="path4"
     style="opacity:1;fill:#800000;stroke-width:0.0363012" />
  <path
     d="m 21.750204,16.305972 a 2.5076964,2.4059949 0 0 1 3.545882,3.402085 l -7.523084,7.21798 a 2.5076964,2.4059949 0 0 1 -3.545886,0 l -7.5230849,-7.21798 a 2.5076964,2.4059949 0 0 1 3.5458799,-3.402085 l 5.750149,5.516956 z"
     fill="#000000"
     id="path6"
     style="stroke-width:0.0575698" />
</svg>
