<?xml version="1.0" encoding="UTF-8" standalone="no"?>
<svg
   width="32"
   height="32"
   version="1.1"
   id="svg4"
   sodipodi:docname="file_import_sps2.svg"
   inkscape:version="1.4.2 (f4327f4, 2025-05-13)"
   xmlns:inkscape="http://www.inkscape.org/namespaces/inkscape"
   xmlns:sodipodi="http://sodipodi.sourceforge.net/DTD/sodipodi-0.dtd"
   xmlns="http://www.w3.org/2000/svg"
   xmlns:svg="http://www.w3.org/2000/svg">
  <defs
     id="defs4" />
  <sodipodi:namedview
     id="namedview4"
     pagecolor="#ffffff"
     bordercolor="#000000"
     borderopacity="0.25"
     inkscape:showpageshadow="2"
     inkscape:pageopacity="0.0"
     inkscape:pagecheckerboard="0"
     inkscape:deskcolor="#d1d1d1"
     inkscape:zoom="56.71875"
     inkscape:cx="15.991185"
     inkscape:cy="16"
     inkscape:window-width="3840"
     inkscape:window-height="2054"
     inkscape:window-x="-11"
     inkscape:window-y="-11"
     inkscape:window-maximized="1"
     inkscape:current-layer="svg4" />
  <text
     transform="scale(0.92302506,1.0833942)"
     x="0.51703709"
     y="12.147114"
     fill="#800000"
     font-family="sans-serif"
     font-size="12.0001px"
     font-weight="bold"
     letter-spacing="0.81336px"
     stroke-width="1.19611"
     style="line-height:1.25"
     xml:space="preserve"
     id="text1"><tspan
       x="0.51703709"
       y="12.147114"
       fill="#800000"
       font-family="sans-serif"
       font-size="12.0001px"
       font-weight="bold"
       stroke-width="1.19611"
       id="tspan1">.SPS</tspan></text>
  <path
     d="m 25.905003,22.755923 c -0.372093,0 -0.697674,0.325582 -0.697674,0.697675 v 4.790697 c 0,0.930233 -0.744186,1.720931 -1.72093,1.720931 H 9.0677943 c -0.9302326,0 -1.7209303,-0.744186 -1.7209303,-1.720931 v -4.790697 c 0,-0.372093 -0.3255814,-0.697675 -0.6976744,-0.697675 -0.372093,0 -0.6976744,0.325582 -0.6976744,0.697675 v 4.790697 c 0,1.720931 1.3953488,3.11628 3.1162791,3.11628 H 23.486399 c 1.72093,0 3.116279,-1.395349 3.116279,-3.11628 v -4.790697 c 0,-0.372093 -0.27907,-0.697675 -0.697675,-0.697675 z"
     id="path907"
     style="stroke-width:0.465116" />
  <path
     d="m 20.71054,23.37022 -3.65323,3.602405 0.07656,-10.929964 c 0.0026,-0.372083 -0.320686,-0.699938 -0.69277,-0.702544 -0.372084,-0.0026 -0.699938,0.320687 -0.702544,0.692771 l -0.07656,10.929964 -3.602407,-3.653229 c -0.277108,-0.281018 -0.695703,-0.28395 -0.97672,-0.0068 -0.281018,0.277107 -0.28395,0.695702 -0.0068,0.97672 l 4.756698,4.870646 c 0,0 0,0 0,0 0,0 0,0 0,0 0,0 0,0 0,0 0,0 0,0 0,0 0,0 0,0 0,0 0.138554,0.140509 0.27776,0.187997 0.463802,0.1893 0,0 0,0 0,0 0,0 0,0 0,0 0,0 0,0 0,0 v 0 c 0.186042,0.0013 0.372735,-0.09041 0.466408,-0.182784 0,0 0,0 0,0 l 4.917483,-4.802883 c 0.281017,-0.277108 0.283949,-0.695703 0.0068,-0.97672 -0.277108,-0.281018 -0.742213,-0.284276 -0.97672,-0.0068 z"
     id="path905"
     style="stroke-width:0.465116" />
</svg>
