<?xml version="1.0" encoding="UTF-8" standalone="no"?>
<!-- Uploaded to: SVG Repo, www.svgrepo.com, Generator: SVG Repo Mixer Tools -->

<svg
   fill="#000000"
   width="24"
   height="24"
   viewBox="0 0 24 24"
   xml:space="preserve"
   version="1.1"
   id="svg485"
   sodipodi:docname="mActionFileRecent.svg"
   inkscape:version="1.2.1 (9c6d41e410, 2022-07-14)"
   xmlns:inkscape="http://www.inkscape.org/namespaces/inkscape"
   xmlns:sodipodi="http://sodipodi.sourceforge.net/DTD/sodipodi-0.dtd"
   xmlns="http://www.w3.org/2000/svg"
   xmlns:svg="http://www.w3.org/2000/svg"><defs
   id="defs489" /><sodipodi:namedview
   id="namedview487"
   pagecolor="#ffffff"
   bordercolor="#666666"
   borderopacity="1.0"
   inkscape:showpageshadow="2"
   inkscape:pageopacity="0.0"
   inkscape:pagecheckerboard="0"
   inkscape:deskcolor="#d1d1d1"
   showgrid="false"
   inkscape:zoom="41.08"
   inkscape:cx="12.341772"
   inkscape:cy="11.136806"
   inkscape:window-width="2560"
   inkscape:window-height="1361"
   inkscape:window-x="2551"
   inkscape:window-y="-9"
   inkscape:window-maximized="1"
   inkscape:current-layer="svg485" />


<g
   id="g483"
   transform="matrix(0.35732467,0,0,0.35972484,-5.6870922,-5.680256)"
   style="fill:#4d4d4d">
	<g
   id="g477"
   style="fill:#4d4d4d">
		<path
   d="m 51.5,36 h -3 C 47.7,36 47,36.7 47,37.5 v 13.1 c 0,0.4 0.2,0.8 0.4,1.1 l 8.4,8.4 c 0.6,0.6 1.5,0.6 2.1,0 L 60,58 c 0.6,-0.6 0.6,-1.5 0,-2.1 L 53,48.8 V 37.5 C 53,36.7 52.3,36 51.5,36 Z"
   id="path475"
   style="fill:#4d4d4d" />
	</g>
	<g
   id="g481"
   style="fill:#4d4d4d">
		<path
   d="m 50,22 c -14.8,0 -26.9,11.5 -27.9,26 0,0.3 -0.1,0.7 -0.1,1 h -4.5 c -1.3,0 -2,1.5 -1.2,2.4 l 7.5,9.1 c 0.6,0.7 1.7,0.7 2.3,0 l 7.5,-9.1 C 34.4,50.4 33.7,49 32.4,49 H 28 c 0,-0.3 0,-0.7 0,-1 1,-11.2 10.5,-20 21.9,-20 13,0 23.3,11.3 21.9,24.5 -1,9.5 -10,18.5 -19.6,19.4 -7.1,0.7 -13.8,-1.9 -18.5,-7 -0.6,-0.7 -1.4,-1.1 -2.2,-0.1 l -2.4,2.9 c -0.5,0.6 -0.1,1 0.4,1.5 5.4,5.7 12.8,8.9 20.8,8.8 C 64.7,77.8 76.8,66.4 77.8,52 79.1,35.7 66.1,22 50,22 Z"
   id="path479"
   style="fill:#4d4d4d" />
	</g>
</g>
</svg>
