<?xml version="1.0" encoding="UTF-8" standalone="no"?>
<svg
   viewBox="0 0 32 32"
   x="0px"
   y="0px"
   version="1.1"
   id="svg1063"
   sodipodi:docname="preview.svg"
   width="32"
   height="32"
   inkscape:version="1.2.1 (9c6d41e410, 2022-07-14)"
   xmlns:inkscape="http://www.inkscape.org/namespaces/inkscape"
   xmlns:sodipodi="http://sodipodi.sourceforge.net/DTD/sodipodi-0.dtd"
   xmlns="http://www.w3.org/2000/svg"
   xmlns:svg="http://www.w3.org/2000/svg"
   xmlns:rdf="http://www.w3.org/1999/02/22-rdf-syntax-ns#"
   xmlns:cc="http://creativecommons.org/ns#"
   xmlns:dc="http://purl.org/dc/elements/1.1/">
  <defs
     id="defs1067" />
  <sodipodi:namedview
     id="namedview1065"
     pagecolor="#ffffff"
     bordercolor="#666666"
     borderopacity="1.0"
     inkscape:showpageshadow="2"
     inkscape:pageopacity="0.0"
     inkscape:pagecheckerboard="0"
     inkscape:deskcolor="#d1d1d1"
     showgrid="false"
     inkscape:zoom="34.233333"
     inkscape:cx="9.6251217"
     inkscape:cy="17.336904"
     inkscape:window-width="2560"
     inkscape:window-height="1361"
     inkscape:window-x="2551"
     inkscape:window-y="-9"
     inkscape:window-maximized="1"
     inkscape:current-layer="svg1063" />
  <title
     id="title1051">Preview</title>
  <g
     id="g1057"
     transform="matrix(1.0000278,0,0,1,3.9996669,2)"
     style="stroke-width:0.69999027;stroke-dasharray:none;image-rendering:auto">
    <path
       d="M 12,19 C 5.526,19 0.44,12.9 0.227,12.634 a 1,1 0 0 1 0,-1.268 C 0.44,11.105 5.526,5 12,5 c 6.474,0 11.56,6.105 11.773,6.366 a 1,1 0 0 1 0,1.268 C 23.56,12.9 18.474,19 12,19 Z M 2.349,12 c 1.415,1.472 5.262,5 9.651,5 4.389,0 8.239,-3.525 9.651,-5 C 20.236,10.528 16.389,7 12,7 7.611,7 3.761,10.525 2.349,12 Z"
       id="path1053"
       style="stroke-width:0.69999027;stroke-dasharray:none" />
    <path
       d="m 12,16 a 4,4 0 1 1 4,-4 4,4 0 0 1 -4,4 z m 0,-6 a 2,2 0 1 0 2,2 2,2 0 0 0 -2,-2 z"
       id="path1055"
       style="stroke-width:0.69999027;stroke-dasharray:none" />
  </g>
  <metadata
     id="metadata1193">
    <rdf:RDF>
      <cc:Work
         rdf:about="">
        <dc:title>Preview</dc:title>
      </cc:Work>
    </rdf:RDF>
  </metadata>
</svg>
