<?xml version="1.0" encoding="UTF-8" standalone="no"?>
<svg
   version="1.1"
   x="0px"
   y="0px"
   viewBox="0 0 32 32"
   enable-background="new 0 0 90 90"
   xml:space="preserve"
   id="svg4957"
   sodipodi:docname="moveUpIcon.svg"
   width="32"
   height="32"
   inkscape:version="1.2.1 (9c6d41e410, 2022-07-14)"
   xmlns:inkscape="http://www.inkscape.org/namespaces/inkscape"
   xmlns:sodipodi="http://sodipodi.sourceforge.net/DTD/sodipodi-0.dtd"
   xmlns="http://www.w3.org/2000/svg"
   xmlns:svg="http://www.w3.org/2000/svg"><defs
     id="defs4961" /><sodipodi:namedview
     id="namedview4959"
     pagecolor="#ffffff"
     bordercolor="#666666"
     borderopacity="1.0"
     inkscape:showpageshadow="2"
     inkscape:pageopacity="0.0"
     inkscape:pagecheckerboard="0"
     inkscape:deskcolor="#d1d1d1"
     showgrid="false"
     inkscape:zoom="9.1288889"
     inkscape:cx="32.369766"
     inkscape:cy="56.469085"
     inkscape:window-width="1450"
     inkscape:window-height="1243"
     inkscape:window-x="2784"
     inkscape:window-y="100"
     inkscape:window-maximized="0"
     inkscape:current-layer="svg4957" /><path
     d="m 18.163659,26 h -4.32732 c -0.852351,0 -1.540788,-0.696518 -1.540788,-1.558872 V 17.475953 H 7.4764902 c -0.6556548,0 -1.2129621,-0.298508 -1.4096585,-0.729684 C 5.9357061,16.44776 6.0012624,16.116087 6.230746,15.850747 L 14.754255,6.5306801 C 15.082082,6.199005 15.508258,6 15.999999,6 c 0.49174,0 0.917916,0.199005 1.245743,0.5306801 l 8.52351,9.3200669 c 0.229481,0.26534 0.295045,0.597013 0.163914,0.895522 -0.196696,0.431176 -0.754004,0.729684 -1.409658,0.729684 h -4.819061 v 6.965175 C 19.704447,25.303482 19.016009,26 18.163659,26 Z M 15.999999,6.630182 c -0.295044,0 -0.557306,0.1326646 -0.754003,0.331675 l -8.5235095,9.320066 c -0.098354,0.0995 -0.065569,0.165837 -0.065569,0.199006 0.065569,0.165836 0.3933929,0.331675 0.8195692,0.331675 H 12.9512 v 7.628524 c 0,0.497513 0.393394,0.895522 0.885135,0.895522 h 4.327319 c 0.491741,0 0.885135,-0.398009 0.885135,-0.895522 v -7.628524 h 5.474717 c 0.426175,0 0.754001,-0.165839 0.819568,-0.331675 0,-0.03318 0.03278,-0.09949 -0.06557,-0.199006 L 16.753993,6.961857 C 16.557297,6.762852 16.295037,6.630182 15.99999,6.630182 Z"
     id="path4951"
     style="stroke-width:0.5;stroke-dasharray:none;paint-order:markers stroke fill;stroke:#000000;stroke-opacity:1"
     inkscape:highlight-color="#000000" /></svg>
