<?xml version="1.0" encoding="UTF-8" standalone="no"?>
<svg
   version="1.1"
   x="0px"
   y="0px"
   viewBox="0 0 32 32"
   enable-background="new 0 0 100 100"
   xml:space="preserve"
   id="svg771"
   sodipodi:docname="remove.svg"
   width="32"
   height="32"
   inkscape:version="1.2.1 (9c6d41e410, 2022-07-14)"
   xmlns:inkscape="http://www.inkscape.org/namespaces/inkscape"
   xmlns:sodipodi="http://sodipodi.sourceforge.net/DTD/sodipodi-0.dtd"
   xmlns="http://www.w3.org/2000/svg"
   xmlns:svg="http://www.w3.org/2000/svg"><defs
     id="defs775" /><sodipodi:namedview
     id="namedview773"
     pagecolor="#ffffff"
     bordercolor="#666666"
     borderopacity="1.0"
     inkscape:showpageshadow="2"
     inkscape:pageopacity="0.0"
     inkscape:pagecheckerboard="0"
     inkscape:deskcolor="#d1d1d1"
     showgrid="false"
     inkscape:zoom="8.216"
     inkscape:cx="44.790652"
     inkscape:cy="62.5"
     inkscape:window-width="2560"
     inkscape:window-height="1361"
     inkscape:window-x="2551"
     inkscape:window-y="-9"
     inkscape:window-maximized="1"
     inkscape:current-layer="svg771" /><path
     d="m 14.094149,25.205753 c 0.0039,0 0.0079,0 0.01174,0 0.360052,-0.0062 0.646321,-0.297347 0.640324,-0.650177 L 14.485487,10.037968 c -0.0063,-0.3528288 -0.295395,-0.6358586 -0.663268,-0.6279328 -0.360052,0.00614 -0.646321,0.2973476 -0.640325,0.6501758 l 0.260719,14.517609 c 0.0065,0.34925 0.296958,0.627933 0.651536,0.627933 z m 3.813006,0 c 0.354577,0 0.645278,-0.278683 0.651536,-0.627933 l 0.260718,-14.517609 c 0.006,-0.3528282 -0.280272,-0.6440396 -0.640324,-0.6501758 -0.356402,-0.00818 -0.65675,0.275104 -0.663268,0.6279318 l -0.260718,14.517609 c -0.006,0.35283 0.280272,0.64404 0.640324,0.650177 0.0039,0 0.0081,0 0.01176,0 z M 23.0334,9.4100352 c -0.354054,-0.00792 -0.66066,0.2653884 -0.672393,0.6182168 l -0.521696,15.907959 c 0,0.433364 -0.358749,0.785681 -0.799624,0.785681 H 10.96292 c -0.441657,0 -0.801188,-0.352317 -0.801448,-0.806391 L 9.6400349,10.027996 C 9.6282815,9.6751679 9.3201329,9.4000641 8.9676423,9.4097796 8.6078499,9.4210293 8.3254926,9.7163313 8.3369643,10.06916 L 8.8581402,25.935954 C 8.8581402,27.07421 9.8024627,28 10.96292,28 h 10.076505 c 1.159676,0 2.103217,-0.926047 2.102956,-2.043592 L 23.663818,10.068904 C 23.675331,9.7165868 23.392932,9.4215405 23.0334,9.4100352 Z M 24.348204,6.8533078 H 7.6517961 C 7.2917441,6.8533078 7,7.1394056 7,7.4924897 7,7.8455738 7.2917441,8.1316715 7.6517961,8.1316715 H 24.348204 C 24.708256,8.1316715 25,7.8455738 25,7.4924897 25,7.1394056 24.707995,6.8533078 24.348204,6.8533078 Z M 11.950783,6.3010548 c 0.360052,0 0.651795,-0.2860979 0.651795,-0.6391819 0,-0.2114414 0.175463,-0.3835092 0.391078,-0.3835092 h 6.012949 c 0.215615,0 0.391077,0.1720678 0.391077,0.3835092 0,0.353084 0.291744,0.6391819 0.651796,0.6391819 0.360052,0 0.651796,-0.2860979 0.651796,-0.6391819 C 20.701274,4.7455418 19.941019,4 19.006605,4 h -6.012949 c -0.934414,0 -1.694669,0.7455418 -1.694669,1.6618729 0,0.353084 0.291744,0.6391819 0.651796,0.6391819 z"
     id="path765"
     style="stroke-width:0.258184" /></svg>
