<?xml version="1.0" encoding="UTF-8" standalone="no"?>
<svg
   id="Layer_1"
   data-name="Layer 1"
   viewBox="0 0 100.33 122.88"
   version="1.1"
   sodipodi:docname="Stop-painting.svg"
   inkscape:version="1.4.2 (f4327f4, 2025-05-13)"
   xmlns:inkscape="http://www.inkscape.org/namespaces/inkscape"
   xmlns:sodipodi="http://sodipodi.sourceforge.net/DTD/sodipodi-0.dtd"
   xmlns="http://www.w3.org/2000/svg"
   xmlns:svg="http://www.w3.org/2000/svg"
   xmlns:rdf="http://www.w3.org/1999/02/22-rdf-syntax-ns#"
   xmlns:cc="http://creativecommons.org/ns#"
   xmlns:dc="http://purl.org/dc/elements/1.1/">
  <sodipodi:namedview
     id="namedview8"
     pagecolor="#ffffff"
     bordercolor="#000000"
     borderopacity="0.25"
     inkscape:showpageshadow="2"
     inkscape:pageopacity="0.0"
     inkscape:pagecheckerboard="0"
     inkscape:deskcolor="#d1d1d1"
     inkscape:zoom="14.770508"
     inkscape:cx="50.167536"
     inkscape:cy="61.439999"
     inkscape:window-width="3840"
     inkscape:window-height="2054"
     inkscape:window-x="3829"
     inkscape:window-y="-11"
     inkscape:window-maximized="1"
     inkscape:current-layer="Layer_1" />
  <defs
     id="defs1">
    <style
       id="style1">.cls-1{fill:#383838;}.cls-1,.cls-2,.cls-3,.cls-4,.cls-5,.cls-6{fill-rule:evenodd;}.cls-2{fill:#f7e5d9;}.cls-3{fill:#33a867;}.cls-4{fill:#fdba21;}.cls-5{fill:#fb434c;}.cls-6{fill:#47bcff;}</style>
  </defs>
  <title
     id="title1">painting</title>
  <path
     id="path9"
     style="fill:#f7e5d9;fill-rule:evenodd;stroke-width:0.848184"
     d="m 36.536579,15.419762 c -0.236402,0.01158 -0.47371,0.02295 -0.710113,0.0346 -1.136623,0.0953 -2.270459,0.257325 -3.37367,0.529596 -0.88692,0.202193 -1.746858,0.489914 -2.600379,0.787741 -0.934498,0.351358 -1.852954,0.740168 -2.724207,1.210885 -1.278144,0.665505 -2.474002,1.454031 -3.628906,2.286045 -0.952194,0.705683 -1.869424,1.452448 -2.744424,2.23814 -1.033363,0.920055 -2.000759,1.89875 -2.928902,2.908784 -0.701645,0.788926 -1.391223,1.587641 -2.036838,2.416448 -0.580168,0.725258 -1.12202,1.476374 -1.65272,2.232819 -1.119498,1.62988 -2.136192,3.320491 -3.047673,5.056441 -0.400878,0.767651 -0.759356,1.554485 -1.1321383,2.333948 C 9.5173198,38.41847 9.107328,39.391337 8.7486576,40.382622 7.9869668,42.355009 7.4029453,44.381814 6.934204,46.429062 6.3819937,48.909116 6.0230115,51.43006 5.9157857,53.9605 c -0.07881,1.552418 -0.072069,3.106987 0.053075,4.657249 0.098373,1.342411 0.2858603,2.678499 0.507947,4.007896 0.4950626,2.719438 1.2501986,5.399785 2.2566939,7.997162 0.5787852,1.509719 1.2450632,2.988638 1.9812414,4.439023 0.944503,1.876076 2.033125,3.690664 3.21699,5.447652 0.816179,1.139176 1.616739,2.288951 2.516986,3.37451 0.790088,0.978134 1.63865,1.917198 2.496767,2.844913 1.028124,1.052479 2.062425,2.101081 3.186666,3.068462 0.84296,0.738933 1.723755,1.440656 2.613015,2.131689 2.499107,1.90578 5.232282,3.553113 8.134715,4.891443 1.33019,0.602473 2.689894,1.151324 4.088838,1.604754 1.002464,0.334963 2.021568,0.626895 3.047674,0.894192 1.160203,0.27569 2.334252,0.50495 3.517714,0.67862 0.954787,0.139075 1.917533,0.230285 2.880888,0.303395 1.13397,0.0977 2.273631,0.0898 3.411576,0.0905 1.641137,-0.0515 3.28274,-0.17543 4.902562,-0.428475 1.527018,-0.22318 3.03742,-0.532365 4.528551,-0.907491 1.066601,-0.273228 2.125,-0.577628 3.166449,-0.923465 1.634663,-0.53855 3.235365,-1.161581 4.793897,-1.865562 1.066435,-0.480734 2.119787,-0.987327 3.143705,-1.540884 1.750431,-0.965603 3.473645,-1.982763 5.087039,-3.134993 0.811874,-0.548287 1.588971,-1.1372 2.357779,-1.735159 1.741077,-1.382137 3.407452,-2.845119 4.940468,-4.423057 1.015718,-1.036684 1.978549,-2.118101 2.890995,-3.233461 0.446476,-0.438365 0.86317,-0.904842 1.278709,-1.373223 0.391862,-0.466465 0.778924,-0.937291 1.13972,-1.42911 0.411089,-0.545831 0.777128,-1.125109 1.149828,-1.6979 0.540619,-0.883434 1.036941,-1.795149 1.468241,-2.738463 0.336173,-0.729272 0.642929,-1.473714 0.907226,-2.232817 0.253435,-0.720141 0.472092,-1.453717 0.654519,-2.195562 0.220628,-0.658748 0.422614,-1.330079 0.601447,-2.011931 0.255131,-0.941441 0.449882,-1.909908 0.611558,-2.887495 0.09491,-0.682071 0.1964,-1.363563 0.245127,-2.054512 0.04604,-0.585841 0.08188,-1.173426 0.09603,-1.761771 0.01692,-0.729414 0.0079,-1.460257 -0.02527,-2.187577 -0.04047,-0.645961 -0.09488,-1.289785 -0.169314,-1.929431 -0.09725,-0.891003 -0.241,-1.770253 -0.414445,-2.637333 -0.38967,-1.894732 -0.940894,-3.723519 -1.632501,-5.442329 C 91.296699,49.00685 91.039144,48.395878 90.760437,47.804962 90.397301,47.018976 89.989158,46.278466 89.577758,45.540208 89.211102,44.918312 88.836745,44.301543 88.440566,43.714567 88.002834,43.049125 87.525827,42.435689 87.055718,41.81441 86.324387,40.90109 85.558655,40.037912 84.751009,39.254252 84.127123,38.644815 83.485407,38.07302 82.82031,37.55103 81.676948,36.64655 80.473148,35.885116 79.229309,35.272969 78.619582,34.985666 78.003164,34.718486 77.376939,34.503853 76.654707,34.249146 75.92119,34.064528 75.180895,33.931676 73.975986,33.702425 72.752627,33.62492 71.534299,33.668209 c -1.006795,0.04347 -2.01132,0.158181 -3.007242,0.385887 -0.498512,0.09999 -0.993918,0.231683 -1.485931,0.383225 -0.399579,0.133001 -0.801494,0.25596 -1.197842,0.407176 -0.896712,0.344912 -1.781882,0.758269 -2.645868,1.240159 -0.401914,0.230315 -0.801472,0.468273 -1.192788,0.731854 -0.44573,0.290799 -0.879993,0.613096 -1.311562,0.942095 -0.0254,0.02008 -0.05046,0.03834 -0.07581,0.05855 -0.392329,0.167384 -0.79025,0.328919 -1.192789,0.476369 -0.912069,0.358134 -1.85906,0.637491 -2.794966,0.936773 -1.002814,0.276005 -2.02551,0.476375 -3.052729,0.657337 -0.954894,0.155716 -1.920973,0.261114 -2.890995,0.284757 -0.996447,0.03202 -1.997966,-0.0031 -2.98197,-0.159676 -0.938143,-0.160543 -1.861329,-0.411045 -2.709044,-0.819677 -0.668547,-0.328404 -1.291164,-0.750535 -1.768967,-1.296044 -0.719446,-0.778133 -1.097299,-1.7915 -1.149827,-2.804995 -0.0478,-0.858858 0.06591,-1.723085 0.323468,-2.549512 0.251413,-0.887123 0.633931,-1.737513 1.076542,-2.557495 0.686137,-1.274114 1.537273,-2.464427 2.443699,-3.614026 0.606299,-0.765228 1.195017,-1.562341 1.539001,-2.461689 0.316477,-0.800688 0.443677,-1.674085 0.315886,-2.520237 -0.143555,-0.977192 -0.608294,-1.906095 -1.298926,-2.658624 -0.563627,-0.603749 -1.23077,-1.129133 -1.963551,-1.551529 -0.75908,-0.439647 -1.581439,-0.784348 -2.428537,-1.053869 -0.873866,-0.27902 -1.781823,-0.463678 -2.698937,-0.569515 -0.942669,-0.122687 -1.897011,-0.159123 -2.848035,-0.135727 z" />
  <path
     class="cls-3"
     d="m 17.792958,76.12124 a 8.9,8.9 0 1 0 1.44,-12.51 8.91,8.91 0 0 0 -1.44,12.51 z"
     id="path4" />
  <path
     class="cls-4"
     d="m 44.683206,93.049636 a 10.28,10.28 0 1 0 1.66,-14.45 10.29,10.29 0 0 0 -1.66,14.45 z"
     id="path5" />
  <path
     class="cls-5"
     d="m 73.788743,71.969273 a 8.45,8.45 0 0 0 13.23,-10.5 c -6.9,-8.68 -20.13,1.8 -13.23,10.5 z"
     id="path6" />
  <path
     class="cls-6"
     d="m 15.59919,46.520975 a 7.52,7.52 0 1 0 1.21,-10.56 7.51,7.51 0 0 0 -1.21,10.56 z"
     id="path8" />
  <rect
     style="fill:#800000;fill-opacity:1;stroke-width:0.801861;stroke-dasharray:none"
     id="rect10"
     width="3.9489081"
     height="105.35106"
     x="78.771057"
     y="-19.434919"
     transform="matrix(0.90827571,0.41837213,-0.6033986,0.79743973,0,0)" />
  <rect
     style="fill:#800000;fill-opacity:1;stroke-width:0.801861;stroke-dasharray:none"
     id="rect10-5"
     width="3.9489081"
     height="105.35106"
     x="-8.7854509"
     y="24.239248"
     transform="matrix(-0.90827571,0.41837213,0.6033986,0.79743973,0,0)" />
  <metadata
     id="metadata10">
    <rdf:RDF>
      <cc:Work
         rdf:about="">
        <dc:title>painting</dc:title>
      </cc:Work>
    </rdf:RDF>
  </metadata>
</svg>
